# Blender v2.93.4 OBJ File: ''
# www.blender.org
mtllib waterfall_medium.mtl
o waterfall_medium
v -888.191711 151.604492 -17.454735
v -858.682373 151.604492 -4.887318
v -858.769775 233.333160 -15.719771
v -888.191711 233.333160 -28.763899
v -826.896790 151.604492 -0.595735
v -826.896790 233.333160 -11.257343
v -795.111206 151.604492 -4.887317
v -795.023804 233.333160 -15.719771
v -765.601868 151.604492 -17.454733
v -765.601868 233.333160 -28.763899
v -888.191711 478.519165 -63.721413
v -859.096619 478.519165 -49.027313
v -859.232666 560.247803 -60.481491
v -888.191711 560.247803 -75.811722
v -826.896790 478.519165 -43.966625
v -826.896790 560.247803 -55.187111
v -794.696960 478.519165 -49.027313
v -794.560913 560.247803 -60.481491
v -765.601868 478.519165 -63.721409
v -765.601868 560.247803 -75.811722
v -888.191711 641.976501 -88.184700
v -859.385803 641.976501 -72.167656
v -859.362183 666.007874 -80.940109
v -888.191711 666.007874 -96.853043
v -826.896790 641.976501 -66.618965
v -826.896790 666.007874 -75.430099
v -794.407776 641.976501 -72.167656
v -794.431396 666.007874 -80.940109
v -765.601868 641.976501 -88.184700
v -765.601868 666.007874 -96.853043
v -935.166565 -11.852845 -20.962732
v -888.191711 -11.852855 4.771354
v -888.191711 69.875816 -6.281728
v -930.864929 69.875832 -30.626495
v -912.743408 689.346741 -151.574265
v -888.191711 689.346741 -134.611023
v -888.191711 689.346741 -176.206329
v -927.229431 689.346863 -199.284042
v -905.725403 683.142273 -126.651237
v -888.191711 683.142273 -113.458344
v -901.384399 666.007874 -107.358131
v -900.753479 641.976501 -98.272850
v -902.904297 601.112183 -93.440964
v -888.191711 601.112183 -81.959877
v -917.960022 315.061829 -59.617798
v -888.191711 315.061829 -40.228519
v -888.191711 396.790497 -51.871704
v -913.658386 396.790497 -69.281570
v -922.261658 233.333191 -49.954025
v -909.356750 478.519165 -78.945335
v -905.055115 560.247803 -88.609085
v -722.928650 69.875832 -30.626492
v -765.601868 69.875816 -6.281724
v -765.601868 -11.852855 4.771356
v -718.627014 -11.852845 -20.962727
v -765.601868 315.061829 -40.228516
v -731.531921 233.333191 -49.954025
v -735.833557 315.061829 -59.617794
v -740.135193 396.790497 -69.281563
v -765.601868 396.790497 -51.871700
v -744.436829 478.519165 -78.945328
v -748.738464 560.247803 -88.609085
v -765.601868 601.112183 -81.959877
v -750.889282 601.112183 -93.440964
v -753.040100 641.976501 -98.272850
v -752.409180 666.007874 -107.358131
v -765.601868 683.142273 -113.458344
v -748.068176 683.142273 -126.651237
v -765.601868 689.346741 -134.611023
v -741.050171 689.346741 -151.574265
v -765.601868 689.346741 -176.206329
v -726.564148 689.346863 -199.284042
v -926.563293 151.604492 -40.290264
v -727.230286 151.604492 -40.290260
v -858.532349 -11.852859 16.476231
v -858.603577 69.875816 5.840189
v -826.896790 -11.852859 20.460825
v -826.896790 69.875816 9.972877
v -795.261230 -11.852859 16.476233
v -795.190002 69.875816 5.840190
v -858.866943 315.061829 -26.673397
v -826.896790 315.061829 -22.026861
v -794.926636 315.061829 -26.673395
v -858.975342 396.790497 -37.767876
v -826.896790 396.790497 -32.922489
v -794.818237 396.790497 -37.767872
v -794.486633 601.112183 -66.292892
v -826.896790 601.112183 -60.874092
v -859.306946 601.112183 -66.292892
v -794.583130 683.142273 -98.230438
v -826.896790 683.142273 -92.973770
v -859.210449 683.142273 -98.230438
v -794.793579 689.346741 -120.385246
v -826.896790 689.346741 -115.495506
v -859.000000 689.346741 -120.385246
v -795.123962 689.346741 -163.709869
v -826.896790 689.346741 -159.443649
v -858.669617 689.346741 -163.709869
vt 0.621001 0.189967
vt 0.514449 0.189967
vt 0.514449 0.280720
vt 0.621001 0.280720
vt 0.407899 0.189967
vt 0.407899 0.280720
vt 0.301348 0.189967
vt 0.301348 0.280720
vt 0.194797 0.189967
vt 0.194797 0.280720
vt 0.621001 0.553070
vt 0.514449 0.553070
vt 0.514449 0.643895
vt 0.621001 0.643895
vt 0.407899 0.553070
vt 0.407899 0.643895
vt 0.301348 0.553070
vt 0.301348 0.643895
vt 0.194797 0.553070
vt 0.194797 0.643895
vt 0.621001 0.799722
vt 0.514449 0.799722
vt 0.514449 0.841152
vt 0.621001 0.841152
vt 0.407899 0.799722
vt 0.407899 0.841152
vt 0.301348 0.799722
vt 0.301348 0.841152
vt 0.194797 0.799722
vt 0.194797 0.841152
vt 0.726522 0.008498
vt 0.621001 0.008498
vt 0.621001 0.099227
vt 0.726522 0.099227
vt 0.726522 0.919729
vt 0.621001 0.919729
vt 0.621001 0.992189
vt 0.726522 0.992189
vt 0.726522 0.881196
vt 0.621001 0.881196
vt 0.726522 0.841152
vt 0.726522 0.799722
vt 0.726522 0.732945
vt 0.621001 0.732945
vt 0.726522 0.371486
vt 0.621001 0.371486
vt 0.621001 0.462268
vt 0.726522 0.462268
vt 0.726522 0.280720
vt 0.726522 0.553070
vt 0.726522 0.643895
vt 0.089277 0.099227
vt 0.194797 0.099227
vt 0.194797 0.008498
vt 0.089277 0.008498
vt 0.194797 0.371486
vt 0.089277 0.280720
vt 0.089277 0.371486
vt 0.089277 0.462268
vt 0.194797 0.462268
vt 0.089277 0.553070
vt 0.089277 0.643895
vt 0.194797 0.732945
vt 0.089277 0.732945
vt 0.089277 0.799722
vt 0.089277 0.841152
vt 0.194797 0.881196
vt 0.089277 0.881196
vt 0.194797 0.919729
vt 0.089277 0.919729
vt 0.194797 0.992189
vt 0.089277 0.992189
vt 0.726522 0.189967
vt 0.089277 0.189967
vt 0.514449 0.008498
vt 0.514449 0.099227
vt 0.407899 0.008498
vt 0.407899 0.099227
vt 0.301348 0.008498
vt 0.301348 0.099227
vt 0.514449 0.371486
vt 0.407899 0.371486
vt 0.301348 0.371486
vt 0.514449 0.462268
vt 0.407899 0.462268
vt 0.301348 0.462268
vt 0.301348 0.732945
vt 0.407899 0.732945
vt 0.514449 0.732945
vt 0.301348 0.881196
vt 0.407899 0.881196
vt 0.514449 0.881196
vt 0.301348 0.919729
vt 0.407899 0.919729
vt 0.514449 0.919729
vt 0.301348 0.992189
vt 0.407899 0.992189
vt 0.514449 0.992189
vn -0.3956 0.1231 0.9102
vn -0.1328 0.1286 0.9828
vn -0.1327 0.1286 0.9828
vn -0.1375 0.1297 0.9820
vn -0.1376 0.1297 0.9820
vn 0.1327 0.1286 0.9828
vn 0.1328 0.1286 0.9828
vn 0.1376 0.1297 0.9820
vn 0.1375 0.1297 0.9820
vn 0.3956 0.1231 0.9102
vn -0.4557 0.1265 0.8811
vn -0.1540 0.1346 0.9789
vn -0.1539 0.1345 0.9789
vn -0.1593 0.1364 0.9778
vn -0.1594 0.1365 0.9777
vn 0.1539 0.1345 0.9789
vn 0.1540 0.1346 0.9789
vn 0.1594 0.1365 0.9777
vn 0.1593 0.1364 0.9778
vn 0.4557 0.1265 0.8811
vn -0.4619 0.3027 0.8337
vn -0.1579 0.3393 0.9273
vn 0.1579 0.3393 0.9273
vn 0.4619 0.3027 0.8337
vn -0.4840 0.1226 0.8664
vn 0.0000 1.0000 0.0000
vn -0.2030 0.9373 0.2833
vn -0.4881 0.6011 0.6328
vn -0.6013 0.2699 0.7520
vn -0.6054 0.1201 0.7868
vn -0.6154 0.1209 0.7789
vn -0.6157 0.1215 0.7786
vn -0.5503 0.1222 0.8260
vn -0.5324 0.1223 0.8376
vn -0.5888 0.1218 0.7991
vn 0.4840 0.1226 0.8664
vn 0.5324 0.1223 0.8376
vn 0.5503 0.1222 0.8260
vn 0.5888 0.1218 0.7991
vn 0.6157 0.1215 0.7786
vn 0.6154 0.1209 0.7789
vn 0.6054 0.1201 0.7868
vn 0.6013 0.2699 0.7520
vn 0.4881 0.6011 0.6328
vn 0.2030 0.9373 0.2834
vn 0.5691 0.1220 0.8132
vn -0.5691 0.1220 0.8132
vn -0.5154 0.1224 0.8481
vn 0.5154 0.1224 0.8481
vn 0.4993 0.1225 0.8577
vn -0.4993 0.1225 0.8577
vn -0.6050 0.1216 0.7869
vn 0.6050 0.1216 0.7869
vn -0.3703 0.1220 0.9209
vn -0.3824 0.1217 0.9159
vn -0.3706 0.1214 0.9208
vn -0.1261 0.1271 0.9838
vn -0.1282 0.1276 0.9835
vn -0.1283 0.1276 0.9835
vn 0.1261 0.1271 0.9838
vn 0.1283 0.1276 0.9835
vn 0.1282 0.1276 0.9835
vn 0.3703 0.1220 0.9209
vn 0.3706 0.1214 0.9208
vn 0.3824 0.1217 0.9159
vn -0.3826 0.1225 0.9158
vn 0.3826 0.1225 0.9158
vn -0.4093 0.1237 0.9040
vn -0.1426 0.1311 0.9811
vn -0.1427 0.1311 0.9810
vn 0.1427 0.1311 0.9810
vn 0.1426 0.1311 0.9811
vn 0.4093 0.1237 0.9040
vn -0.4239 0.1245 0.8971
vn -0.1481 0.1327 0.9800
vn -0.1482 0.1327 0.9800
vn 0.1482 0.1327 0.9800
vn 0.1481 0.1327 0.9800
vn 0.4239 0.1245 0.8971
vn -0.4393 0.1254 0.8895
vn 0.4393 0.1254 0.8895
vn 0.4685 0.1275 0.8742
vn 0.4688 0.1271 0.8741
vn 0.4772 0.1278 0.8694
vn 0.1634 0.1380 0.9769
vn 0.1633 0.1380 0.9769
vn -0.4685 0.1275 0.8742
vn -0.4772 0.1278 0.8694
vn -0.4688 0.1271 0.8741
vn -0.1633 0.1380 0.9769
vn -0.1634 0.1380 0.9769
vn -0.4774 0.1282 0.8693
vn -0.1650 0.1387 0.9765
vn 0.1650 0.1387 0.9765
vn 0.4774 0.1282 0.8693
vn 0.3573 0.6576 0.6633
vn 0.1157 0.7083 0.6963
vn -0.3573 0.6576 0.6633
vn -0.1157 0.7083 0.6963
vn 0.1378 0.9523 0.2722
vn 0.0421 0.9627 0.2672
vn -0.1378 0.9523 0.2722
vn -0.0421 0.9627 0.2672
usemtl Default_OBJ
s 1
f 1/1/1 2/2/1 3/3/1 4/4/1
f 2/2/2 5/5/3 6/6/4 3/3/5
f 5/5/6 7/7/7 8/8/8 6/6/9
f 7/7/10 9/9/10 10/10/10 8/8/10
f 11/11/11 12/12/11 13/13/11 14/14/11
f 12/12/12 15/15/13 16/16/14 13/13/15
f 15/15/16 17/17/17 18/18/18 16/16/19
f 17/17/20 19/19/20 20/20/20 18/18/20
f 21/21/21 22/22/21 23/23/21 24/24/21
f 22/22/22 25/25/22 26/26/22 23/23/22
f 25/25/23 27/27/23 28/28/23 26/26/23
f 27/27/24 29/29/24 30/30/24 28/28/24
f 31/31/25 32/32/25 33/33/25 34/34/25
f 35/35/26 36/36/26 37/37/26 38/38/26
f 35/35/27 39/39/27 40/40/27 36/36/27
f 39/39/28 41/41/28 24/24/28 40/40/28
f 41/41/29 42/42/29 21/21/29 24/24/29
f 43/43/30 44/44/31 21/21/32 42/42/32
f 45/45/33 46/46/33 47/47/33 48/48/33
f 49/49/34 4/4/34 46/46/34 45/45/34
f 50/50/35 11/11/35 14/14/35 51/51/35
f 52/52/36 53/53/36 54/54/36 55/55/36
f 56/56/37 10/10/37 57/57/37 58/58/37
f 59/59/38 60/60/38 56/56/38 58/58/38
f 20/20/39 19/19/39 61/61/39 62/62/39
f 29/29/40 63/63/41 64/64/42 65/65/40
f 30/30/43 29/29/43 65/65/43 66/66/43
f 67/67/44 30/30/44 66/66/44 68/68/44
f 69/69/45 67/67/45 68/68/45 70/70/45
f 71/71/26 69/69/26 70/70/26 72/72/26
f 19/19/46 60/60/46 59/59/46 61/61/46
f 48/48/47 47/47/47 11/11/47 50/50/47
f 73/73/48 1/1/48 4/4/48 49/49/48
f 57/57/49 10/10/49 9/9/49 74/74/49
f 9/9/50 53/53/50 52/52/50 74/74/50
f 34/34/51 33/33/51 1/1/51 73/73/51
f 51/51/52 14/14/52 44/44/31 43/43/30
f 64/64/42 63/63/41 20/20/53 62/62/53
f 32/32/54 75/75/54 76/76/55 33/33/56
f 75/75/57 77/77/57 78/78/58 76/76/59
f 77/77/60 79/79/60 80/80/61 78/78/62
f 79/79/63 54/54/63 53/53/64 80/80/65
f 33/33/56 76/76/55 2/2/66 1/1/66
f 76/76/59 78/78/58 5/5/3 2/2/2
f 78/78/62 80/80/61 7/7/7 5/5/6
f 80/80/65 53/53/64 9/9/67 7/7/67
f 4/4/68 3/3/68 81/81/68 46/46/68
f 3/3/5 6/6/4 82/82/69 81/81/70
f 6/6/9 8/8/8 83/83/71 82/82/72
f 8/8/73 10/10/73 56/56/73 83/83/73
f 46/46/74 81/81/74 84/84/74 47/47/74
f 81/81/70 82/82/69 85/85/75 84/84/76
f 82/82/72 83/83/71 86/86/77 85/85/78
f 83/83/79 56/56/79 60/60/79 86/86/79
f 47/47/80 84/84/80 12/12/80 11/11/80
f 84/84/76 85/85/75 15/15/13 12/12/12
f 85/85/78 86/86/77 17/17/17 15/15/16
f 86/86/81 60/60/81 19/19/81 17/17/81
f 18/18/82 20/20/82 63/63/83 87/87/84
f 16/16/19 18/18/18 87/87/85 88/88/86
f 14/14/87 13/13/87 89/89/88 44/44/89
f 13/13/15 16/16/14 88/88/90 89/89/91
f 44/44/89 89/89/88 22/22/92 21/21/92
f 89/89/91 88/88/90 25/25/93 22/22/93
f 88/88/86 87/87/85 27/27/94 25/25/94
f 87/87/84 63/63/83 29/29/95 27/27/95
f 28/28/96 30/30/96 67/67/96 90/90/96
f 26/26/97 28/28/97 90/90/97 91/91/97
f 24/24/98 23/23/98 92/92/98 40/40/98
f 23/23/99 26/26/99 91/91/99 92/92/99
f 90/90/100 67/67/100 69/69/100 93/93/100
f 91/91/101 90/90/101 93/93/101 94/94/101
f 40/40/102 92/92/102 95/95/102 36/36/102
f 92/92/103 91/91/103 94/94/103 95/95/103
f 93/93/26 69/69/26 71/71/26 96/96/26
f 94/94/26 93/93/26 96/96/26 97/97/26
f 36/36/26 95/95/26 98/98/26 37/37/26
f 95/95/26 94/94/26 97/97/26 98/98/26
