# Blender v2.93.4 OBJ File: ''
# www.blender.org
mtllib waterfall_small.mtl
o waterfall_small
v -743.341187 684.345215 -277.536896
v -723.264160 684.290710 -269.904358
v -727.811401 825.896179 -261.625366
v -748.026184 825.631348 -269.259979
v -701.835510 684.232544 -268.292206
v -706.220947 826.179016 -260.689758
v -680.820679 684.175537 -272.831512
v -685.416199 826.451538 -266.546387
v -783.158630 684.453308 -299.676453
v -780.188477 825.210022 -287.676147
v -762.927979 877.094055 -345.842773
v -743.881104 876.904968 -332.666443
v -740.426697 874.502441 -342.751556
v -759.974060 874.555481 -357.703430
v -767.561157 877.536926 -327.830261
v -745.571106 877.483459 -313.434296
v -772.174316 871.354797 -311.001190
v -746.990540 871.458679 -295.342957
v -776.149231 859.385132 -297.609589
v -747.936462 859.641968 -280.788544
v -778.948181 843.263855 -289.464111
v -748.292908 843.636841 -271.695282
v -643.225281 684.073486 -286.835938
v -654.667786 826.854370 -280.768921
v -685.662048 844.398865 -269.285889
v -656.341370 844.755615 -283.363159
v -685.261169 860.212524 -278.647278
v -658.283997 860.458130 -292.302032
v -684.257690 871.717468 -293.416046
v -660.230286 871.816589 -306.365173
v -682.786011 877.330872 -311.628479
v -661.914673 877.280151 -323.634094
v -680.987488 876.280640 -330.850067
v -663.107483 876.103149 -341.754669
v -677.459839 874.331482 -340.709351
v -663.462158 874.293518 -348.847290
v -706.440613 844.146057 -263.183319
v -728.069153 843.882874 -264.014679
v -706.005554 860.023682 -272.206207
v -727.703308 859.826172 -272.946838
v -704.965393 871.632019 -286.568695
v -726.758057 871.542175 -287.237640
v -703.455688 877.381104 -304.353394
v -725.357544 877.434326 -304.983246
v -701.652161 876.485779 -323.178741
v -723.688049 876.704529 -323.815277
v -698.988464 874.389954 -332.969910
v -721.105103 874.450012 -333.646881
vt 0.729384 0.110333
vt 0.570398 0.110333
vt 0.570398 0.430892
vt 0.729384 0.430892
vt 0.410670 0.110333
vt 0.410670 0.430892
vt 0.250217 0.110333
vt 0.250217 0.430892
vt 0.962649 0.110333
vt 0.962649 0.430892
vt 0.962649 0.850217
vt 0.729384 0.850217
vt 0.729384 0.897134
vt 0.962649 0.897134
vt 0.962649 0.764703
vt 0.729384 0.764703
vt 0.962649 0.679841
vt 0.729384 0.679841
vt 0.962649 0.595993
vt 0.729384 0.595993
vt 0.962649 0.513132
vt 0.729384 0.513132
vt 0.043834 0.110333
vt 0.043834 0.430892
vt 0.250217 0.513132
vt 0.043834 0.513132
vt 0.250217 0.595993
vt 0.043834 0.595993
vt 0.250217 0.679841
vt 0.043834 0.679841
vt 0.250217 0.764703
vt 0.043834 0.764703
vt 0.250217 0.850217
vt 0.043834 0.850217
vt 0.250217 0.897134
vt 0.043834 0.897134
vt 0.410670 0.513132
vt 0.570398 0.513132
vt 0.410670 0.595993
vt 0.570398 0.595993
vt 0.410670 0.679841
vt 0.570398 0.679841
vt 0.410670 0.764703
vt 0.570398 0.764703
vt 0.410670 0.850217
vt 0.570398 0.850217
vt 0.410670 0.897134
vt 0.570398 0.897134
vn -0.3533 -0.0661 0.9332
vn -0.0587 -0.0577 0.9966
vn 0.2413 -0.0398 0.9696
vn -0.4896 -0.0655 0.8695
vn 0.1368 0.9742 -0.1794
vn 0.0218 0.9995 -0.0237
vn -0.1888 0.9367 0.2948
vn -0.3518 0.7425 0.5700
vn -0.4546 0.4554 0.7655
vn -0.4970 0.1142 0.8602
vn 0.3817 -0.0186 0.9241
vn 0.4194 0.1555 0.8944
vn 0.3841 0.4776 0.7902
vn 0.3008 0.7520 0.5865
vn 0.1619 0.9422 0.2932
vn -0.0296 0.9978 -0.0600
vn -0.1361 0.9615 -0.2387
vn 0.2719 0.1422 0.9518
vn -0.3530 0.1193 0.9280
vn -0.0422 0.1339 0.9901
vn 0.2488 0.4811 0.8406
vn -0.3204 0.4710 0.8219
vn -0.0368 0.4918 0.8699
vn 0.1931 0.7620 0.6181
vn -0.2429 0.7594 0.6036
vn -0.0255 0.7761 0.6300
vn 0.1040 0.9459 0.3072
vn -0.1253 0.9443 0.3042
vn -0.0100 0.9505 0.3106
vn -0.0127 0.9986 -0.0523
vn 0.0201 0.9993 -0.0326
vn 0.0074 0.9991 -0.0424
vn -0.0757 0.9717 -0.2239
vn 0.0966 0.9753 -0.1988
vn 0.0125 0.9769 -0.2132
usemtl Default_OBJ
s off
f 1/1/1 2/2/1 3/3/1 4/4/1
f 2/2/2 5/5/2 6/6/2 3/3/2
f 5/5/3 7/7/3 8/8/3 6/6/3
f 9/9/4 1/1/4 4/4/4 10/10/4
f 11/11/5 12/12/5 13/13/5 14/14/5
f 11/11/6 15/15/6 16/16/6 12/12/6
f 15/15/7 17/17/7 18/18/7 16/16/7
f 17/17/8 19/19/8 20/20/8 18/18/8
f 19/19/9 21/21/9 22/22/9 20/20/9
f 21/21/10 10/10/10 4/4/10 22/22/10
f 8/8/11 7/7/11 23/23/11 24/24/11
f 25/25/12 8/8/12 24/24/12 26/26/12
f 27/27/13 25/25/13 26/26/13 28/28/13
f 29/29/14 27/27/14 28/28/14 30/30/14
f 31/31/15 29/29/15 30/30/15 32/32/15
f 33/33/16 31/31/16 32/32/16 34/34/16
f 35/35/17 33/33/17 34/34/17 36/36/17
f 6/6/18 8/8/18 25/25/18 37/37/18
f 4/4/19 3/3/19 38/38/19 22/22/19
f 3/3/20 6/6/20 37/37/20 38/38/20
f 37/37/21 25/25/21 27/27/21 39/39/21
f 22/22/22 38/38/22 40/40/22 20/20/22
f 38/38/23 37/37/23 39/39/23 40/40/23
f 39/39/24 27/27/24 29/29/24 41/41/24
f 20/20/25 40/40/25 42/42/25 18/18/25
f 40/40/26 39/39/26 41/41/26 42/42/26
f 41/41/27 29/29/27 31/31/27 43/43/27
f 18/18/28 42/42/28 44/44/28 16/16/28
f 42/42/29 41/41/29 43/43/29 44/44/29
f 43/43/30 31/31/30 33/33/30 45/45/30
f 16/16/31 44/44/31 46/46/31 12/12/31
f 44/44/32 43/43/32 45/45/32 46/46/32
f 45/45/33 33/33/33 35/35/33 47/47/33
f 12/12/34 46/46/34 48/48/34 13/13/34
f 46/46/35 45/45/35 47/47/35 48/48/35
