# Blender v2.93.4 OBJ File: ''
# www.blender.org
mtllib waterfall_big.mtl
o waterfall_big
v -52.399384 124.670227 -676.774170
v 188.305450 147.807953 -291.368164
v 302.224854 147.807953 -291.368164
v -4.205963 123.441849 -749.212402
v 86.814362 158.622711 -46.207039
v 214.320465 158.622711 -46.207039
v 19.831573 156.343750 62.461662
v 146.609863 156.011505 94.952988
v 86.740265 13.797947 224.908752
v -60.641632 13.288010 186.333435
v -44.439545 -1030.676147 186.337982
v 100.429779 -1030.676147 234.778290
v -5.645630 148.652740 100.828842
v 127.549530 148.463425 134.939575
v -28.379974 128.005447 135.365448
v 110.603485 128.022522 170.995209
v -46.166107 96.398499 162.733368
v 97.391571 96.641693 199.673553
v -57.279144 56.886871 180.287689
v 89.175781 57.316414 218.235199
v 74.386017 147.807953 -291.368164
v -100.592865 125.898636 -604.335876
v -40.691742 158.622711 -46.207039
v -106.946747 156.676056 29.970448
v -138.840790 148.842056 66.718002
v -167.363495 127.988342 99.735825
v -189.723846 96.155289 125.793060
v -203.734100 56.457344 142.340179
v -208.023529 12.778090 147.758240
v -189.308807 -1030.676147 137.897675
vt 0.475561 0.982173
vt 0.475561 0.703317
vt 0.324103 0.703317
vt 0.324103 0.982173
vt 0.475561 0.540523
vt 0.324103 0.540523
vt 0.475561 0.461863
vt 0.324103 0.461863
vt 0.324103 0.322274
vt 0.475561 0.322274
vt 0.475561 0.012921
vt 0.324103 0.012921
vt 0.475561 0.433090
vt 0.324103 0.433090
vt 0.475561 0.404636
vt 0.324103 0.404636
vt 0.475561 0.376708
vt 0.324103 0.376708
vt 0.475561 0.349321
vt 0.324103 0.349321
vt 0.627020 0.703317
vt 0.627020 0.982173
vt 0.627020 0.540523
vt 0.627020 0.461863
vt 0.627020 0.433090
vt 0.627020 0.404636
vt 0.627020 0.376708
vt 0.627020 0.349321
vt 0.627020 0.322274
vt 0.627020 0.012921
vn -0.0147 0.9986 -0.0500
vn -0.0073 0.9989 -0.0469
vn -0.0060 0.9989 -0.0455
vn -0.0136 0.9988 -0.0474
vn -0.0006 0.9999 -0.0121
vn -0.0004 0.9998 -0.0208
vn -0.0214 0.9952 0.0953
vn -0.0187 0.9962 0.0846
vn -0.2682 0.0787 0.9601
vn -0.2683 0.0739 0.9605
vn -0.2853 -0.0044 0.9584
vn -0.2853 0.0004 0.9584
vn -0.0794 0.9458 0.3150
vn -0.0747 0.9519 0.2969
vn -0.1487 0.8014 0.5792
vn -0.1452 0.8115 0.5659
vn -0.2039 0.5806 0.7883
vn -0.2019 0.5913 0.7808
vn -0.2399 0.3034 0.9221
vn -0.2393 0.3116 0.9196
vn -0.0085 0.9987 -0.0493
vn -0.0167 0.9984 -0.0544
vn -0.0010 1.0000 0.0000
vn -0.0277 0.9925 0.1189
vn -0.0903 0.9298 0.3567
vn -0.1568 0.7765 0.6102
vn -0.2084 0.5548 0.8054
vn -0.2414 0.2857 0.9274
vn -0.2687 0.0680 0.9608
vn -0.2853 -0.0093 0.9584
usemtl Default_OBJ
s 1
f 1/1/1 2/2/2 3/3/3 4/4/4
f 2/2/2 5/5/5 6/6/6 3/3/3
f 5/5/5 7/7/7 8/8/8 6/6/6
f 9/9/9 10/10/10 11/11/11 12/12/12
f 7/7/7 13/13/13 14/14/14 8/8/8
f 13/13/13 15/15/15 16/16/16 14/14/14
f 15/15/15 17/17/17 18/18/18 16/16/16
f 17/17/17 19/19/19 20/20/20 18/18/18
f 19/19/19 10/10/10 9/9/9 20/20/20
f 21/21/21 2/2/2 1/1/1 22/22/22
f 23/23/23 5/5/5 2/2/2 21/21/21
f 24/24/24 7/7/7 5/5/5 23/23/23
f 24/24/24 25/25/25 13/13/13 7/7/7
f 25/25/25 26/26/26 15/15/15 13/13/13
f 26/26/26 27/27/27 17/17/17 15/15/15
f 27/27/27 28/28/28 19/19/19 17/17/17
f 28/28/28 29/29/29 10/10/10 19/19/19
f 11/11/11 10/10/10 29/29/29 30/30/30
