# Blender v2.93.4 OBJ File: ''
# www.blender.org
mtllib waterfall_big.mtl
o waterfall_big
v -52.399384 124.670120 -676.774170
v 188.305450 147.807907 -291.368195
v 302.224854 147.807907 -291.368195
v -4.205963 123.441727 -749.212402
v 86.814362 158.622711 -46.207066
v 214.320465 158.622711 -46.207066
v 19.831573 156.343765 62.461636
v 146.609863 156.011520 94.952965
v 86.740265 13.797983 224.908752
v -60.641632 13.288040 186.333435
v -44.439545 -1030.676147 186.338150
v 100.429779 -1030.676147 234.778458
v -5.645630 148.652756 100.828819
v 127.549530 148.463440 134.939545
v -28.379974 128.005463 135.365433
v 110.603485 128.022552 170.995193
v -46.166107 96.398521 162.733353
v 97.391571 96.641724 199.673538
v -57.279144 56.886902 180.287674
v 89.175781 57.316448 218.235184
v 74.386017 147.807907 -291.368195
v -100.592865 125.898537 -604.335876
v -40.691742 158.622711 -46.207066
v -106.946747 156.676056 29.970423
v -138.840790 148.842072 66.717979
v -167.363495 127.988358 99.735802
v -189.723846 96.155312 125.793045
v -203.734100 56.457367 142.340164
v -208.023529 12.778113 147.758240
v -189.308807 -1030.676147 137.897842
vt 0.475561 0.982173
vt 0.475561 0.703317
vt 0.324103 0.703317
vt 0.324103 0.982173
vt 0.475561 0.540523
vt 0.324103 0.540523
vt 0.475561 0.461863
vt 0.324103 0.461863
vt 0.324103 0.322274
vt 0.475561 0.322274
vt 0.475561 0.012921
vt 0.324103 0.012921
vt 0.475561 0.433090
vt 0.324103 0.433090
vt 0.475561 0.404636
vt 0.324103 0.404636
vt 0.475561 0.376708
vt 0.324103 0.376708
vt 0.475561 0.349321
vt 0.324103 0.349321
vt 0.627020 0.703317
vt 0.627020 0.982173
vt 0.627020 0.540523
vt 0.627020 0.461863
vt 0.627020 0.433090
vt 0.627020 0.404636
vt 0.627020 0.376708
vt 0.627020 0.349321
vt 0.627020 0.322274
vt 0.627020 0.012921
vn -0.0136 0.9988 -0.0474
vn 0.0000 0.9990 -0.0441
vn -0.0011 0.9998 0.0190
vn -0.2854 0.0004 0.9584
vn -0.0411 0.9849 0.1682
vn -0.1149 0.8853 0.4507
vn -0.1779 0.7016 0.6901
vn -0.2242 0.4508 0.8640
vn -0.2494 0.1561 0.9557
vn -0.0168 0.9984 -0.0544
vn -0.0015 0.9998 0.0218
vn -0.0419 0.9843 0.1714
vn -0.1159 0.8831 0.4546
vn -0.1789 0.6975 0.6939
vn -0.2249 0.4446 0.8670
vn -0.2497 0.1476 0.9570
vn -0.2853 -0.0093 0.9584
usemtl Default_OBJ
s off
f 1/1/1 2/2/1 3/3/1 4/4/1
f 2/2/2 5/5/2 6/6/2 3/3/2
f 5/5/3 7/7/3 8/8/3 6/6/3
f 9/9/4 10/10/4 11/11/4 12/12/4
f 7/7/5 13/13/5 14/14/5 8/8/5
f 13/13/6 15/15/6 16/16/6 14/14/6
f 15/15/7 17/17/7 18/18/7 16/16/7
f 17/17/8 19/19/8 20/20/8 18/18/8
f 19/19/9 10/10/9 9/9/9 20/20/9
f 21/21/10 2/2/10 1/1/10 22/22/10
f 23/23/2 5/5/2 2/2/2 21/21/2
f 24/24/11 7/7/11 5/5/11 23/23/11
f 24/24/12 25/25/12 13/13/12 7/7/12
f 25/25/13 26/26/13 15/15/13 13/13/13
f 26/26/14 27/27/14 17/17/14 15/15/14
f 27/27/15 28/28/15 19/19/15 17/17/15
f 28/28/16 29/29/16 10/10/16 19/19/16
f 11/11/17 10/10/17 29/29/17 30/30/17
