# This file uses centimeters as units for non-parametric coordinates.

mtllib EnemyNormalUV.mtl
g default
v -0.678291 10.789557 1.000000
v -1.108815 24.164284 1.634719
v -0.678291 10.789557 -1.000000
v -1.108815 24.164284 -1.634719
v 0.678291 10.789557 1.000000
v 1.108815 24.164284 1.634719
v 0.678291 10.789557 -1.000000
v 1.108815 24.164284 -1.634719
v -0.671947 7.721980 -1.566409
v 0.671946 7.721980 -1.566409
v -0.671947 7.416389 -1.536311
v 0.671946 7.416389 -1.536311
v -0.671947 7.122541 -1.447173
v 0.671946 7.122541 -1.447173
v -0.671947 6.851730 -1.302422
v 0.671946 6.851730 -1.302422
v -0.671947 6.614362 -1.107618
v 0.671946 6.614362 -1.107618
v -0.671947 6.419559 -0.870250
v 0.671946 6.419559 -0.870250
v -0.671947 6.274807 -0.599439
v 0.671946 6.274807 -0.599439
v -0.671947 6.185669 -0.305591
v 0.671946 6.185669 -0.305591
v -0.671947 6.155571 0.000000
v 0.671946 6.155571 0.000000
v -0.671947 6.185669 0.305591
v 0.671946 6.185669 0.305591
v -0.671947 6.274807 0.599439
v 0.671946 6.274807 0.599439
v -0.671947 6.419559 0.870250
v 0.671946 6.419559 0.870250
v -0.671947 6.614362 1.107618
v 0.671946 6.614362 1.107618
v -0.671947 6.851730 1.302422
v 0.671946 6.851730 1.302422
v -0.671947 7.122541 1.447173
v 0.671946 7.122541 1.447173
v -0.671947 7.416389 1.536311
v 0.671946 7.416389 1.536311
v -0.671947 7.721980 1.566409
v 0.671946 7.721980 1.566409
v -0.671947 8.027571 1.536311
v 0.671946 8.027572 1.536311
v -0.671947 8.321419 1.447173
v 0.671946 8.321419 1.447173
v -0.671947 8.592231 1.302421
v 0.671946 8.592231 1.302421
v -0.671947 8.829598 1.107619
v 0.671946 8.829598 1.107619
v -0.671947 9.024402 0.870251
v 0.671946 9.024402 0.870251
v -0.671947 9.169153 0.599439
v 0.671946 9.169153 0.599439
v -0.671947 9.258291 0.305591
v 0.671946 9.258291 0.305591
v -0.671947 9.288389 0.000000
v 0.671946 9.288389 0.000000
v -0.671947 9.258291 -0.305591
v 0.671946 9.258291 -0.305591
v -0.671947 9.169153 -0.599439
v 0.671946 9.169153 -0.599439
v -0.671947 9.024402 -0.870250
v 0.671946 9.024402 -0.870250
v -0.671947 8.829598 -1.107618
v 0.671946 8.829598 -1.107618
v -0.671947 8.592231 -1.302422
v 0.671946 8.592231 -1.302422
v -0.671947 8.321419 -1.447173
v 0.671946 8.321419 -1.447173
v -0.671947 8.027571 -1.536311
v 0.671946 8.027572 -1.536311
vt 0.532901 0.764683
vt 0.469155 0.145088
vt 0.620933 0.136713
vt 0.625748 0.759559
vt 0.724009 0.139230
vt 0.688802 0.761099
vt 0.875197 0.155003
vt 0.781287 0.770748
vt 0.976573 0.173816
vt 0.843301 0.782256
vt 0.682257 0.823831
vt 0.774743 0.833480
vt 0.734708 0.036680
vt 0.885896 0.052453
vt 0.975568 0.842465
vt 0.976685 0.972701
vt 0.946927 0.972956
vt 0.945811 0.842721
vt 0.917169 0.973211
vt 0.916053 0.842976
vt 0.887411 0.973466
vt 0.886295 0.843231
vt 0.857653 0.973722
vt 0.856537 0.843486
vt 0.827895 0.973977
vt 0.826779 0.843741
vt 0.798137 0.974232
vt 0.797021 0.843996
vt 0.768379 0.974487
vt 0.767263 0.844251
vt 0.738622 0.974742
vt 0.737505 0.844506
vt 0.708864 0.974997
vt 0.707747 0.844761
vt 0.679106 0.975252
vt 0.677989 0.845016
vt 0.649348 0.975507
vt 0.648231 0.845271
vt 0.619590 0.975762
vt 0.618473 0.845526
vt 0.589832 0.976017
vt 0.588716 0.845782
vt 0.560074 0.976272
vt 0.558958 0.846037
vt 0.530316 0.976527
vt 0.529200 0.846292
vt 0.500558 0.976783
vt 0.499442 0.846547
vt 0.470800 0.977038
vt 0.469684 0.846802
vt 0.441042 0.977293
vt 0.439926 0.847057
vt 0.411284 0.977548
vt 0.410168 0.847312
vt 0.381527 0.977803
vt 0.380410 0.847567
vt 0.351769 0.978058
vt 0.350652 0.847822
vt 0.322011 0.978313
vt 0.320894 0.848077
vt 0.292253 0.978568
vt 0.291136 0.848332
vt 0.262495 0.978823
vt 0.261378 0.848587
vt 0.232737 0.979078
vt 0.231621 0.848843
vt 0.202979 0.979333
vt 0.201863 0.849098
vt 0.173221 0.979588
vt 0.172105 0.849353
vt 0.143463 0.979843
vt 0.142347 0.849608
vt 0.113705 0.980099
vt 0.112589 0.849863
vt 0.083947 0.980354
vt 0.082831 0.850118
vt 0.273519 0.415649
vt 0.234339 0.419508
vt 0.195158 0.415649
vt 0.157484 0.404221
vt 0.122763 0.385662
vt 0.092330 0.360687
vt 0.067354 0.330253
vt 0.048796 0.295532
vt 0.037368 0.257858
vt 0.033508 0.218678
vt 0.037368 0.179497
vt 0.048796 0.141823
vt 0.067354 0.107102
vt 0.092330 0.076669
vt 0.122763 0.051693
vt 0.157484 0.033134
vt 0.195158 0.021706
vt 0.234339 0.017847
vt 0.273519 0.021706
vt 0.311193 0.033134
vt 0.345914 0.051693
vt 0.376348 0.076669
vt 0.401324 0.107102
vt 0.419882 0.141823
vt 0.431310 0.179497
vt 0.435169 0.218678
vt 0.431310 0.257858
vt 0.419882 0.295532
vt 0.401324 0.330253
vt 0.376348 0.360687
vt 0.345914 0.385662
vt 0.311193 0.404221
vt 0.054189 0.980609
vt 0.053073 0.850373
vt 0.024432 0.980864
vt 0.023315 0.850628
vt 0.273521 0.415649
vt 0.234341 0.419508
vt 0.195161 0.415650
vt 0.157486 0.404222
vt 0.122765 0.385663
vt 0.092332 0.360688
vt 0.067355 0.330255
vt 0.048796 0.295534
vt 0.037368 0.257860
vt 0.033508 0.218680
vt 0.037367 0.179500
vt 0.048795 0.141825
vt 0.067353 0.107104
vt 0.092329 0.076670
vt 0.122761 0.051694
vt 0.157482 0.033135
vt 0.195157 0.021706
vt 0.234337 0.017847
vt 0.273517 0.021706
vt 0.311191 0.033134
vt 0.345912 0.051692
vt 0.376346 0.076667
vt 0.401322 0.107100
vt 0.419881 0.141821
vt 0.431310 0.179495
vt 0.435169 0.218675
vt 0.431311 0.257856
vt 0.419883 0.295530
vt 0.401325 0.330251
vt 0.376349 0.360685
vt 0.345916 0.385661
vt 0.311195 0.404220
vn -0.999481 -0.032199 0.000000
vn -0.999481 -0.032199 0.000000
vn -0.999481 -0.032199 0.000000
vn -0.999481 -0.032199 0.000000
vn 0.000000 -0.047399 -0.998876
vn 0.000000 -0.047399 -0.998876
vn 0.000000 -0.047399 -0.998876
vn 0.000000 -0.047399 -0.998876
vn 0.999481 -0.032199 0.000000
vn 0.999481 -0.032199 0.000000
vn 0.999481 -0.032199 0.000000
vn 0.999481 -0.032199 0.000000
vn 0.000000 -0.047399 0.998876
vn 0.000000 -0.047399 0.998876
vn 0.000000 -0.047399 0.998876
vn 0.000000 -0.047399 0.998876
vn 0.000000 -1.000000 0.000000
vn 0.000000 -1.000000 0.000000
vn 0.000000 -1.000000 0.000000
vn 0.000000 -1.000000 0.000000
vn 0.000000 1.000000 0.000000
vn 0.000000 1.000000 0.000000
vn 0.000000 1.000000 0.000000
vn 0.000000 1.000000 0.000000
vn 0.000000 -0.097999 -0.995187
vn 0.000000 -0.097999 -0.995187
vn 0.000000 -0.097999 -0.995187
vn 0.000000 -0.097999 -0.995187
vn 0.000000 -0.290310 -0.956933
vn 0.000000 -0.290310 -0.956933
vn 0.000000 -0.290310 -0.956933
vn 0.000000 -0.290310 -0.956933
vn 0.000000 -0.471408 -0.881915
vn 0.000000 -0.471408 -0.881915
vn 0.000000 -0.471408 -0.881915
vn 0.000000 -0.471408 -0.881915
vn 0.000000 -0.634402 -0.773003
vn 0.000000 -0.634402 -0.773003
vn 0.000000 -0.634402 -0.773003
vn 0.000000 -0.634402 -0.773003
vn 0.000000 -0.773003 -0.634402
vn 0.000000 -0.773003 -0.634402
vn 0.000000 -0.773003 -0.634402
vn 0.000000 -0.773003 -0.634402
vn 0.000000 -0.881915 -0.471408
vn 0.000000 -0.881915 -0.471408
vn 0.000000 -0.881915 -0.471408
vn 0.000000 -0.881915 -0.471408
vn 0.000000 -0.956933 -0.290310
vn 0.000000 -0.956933 -0.290310
vn 0.000000 -0.956933 -0.290310
vn 0.000000 -0.956933 -0.290310
vn 0.000000 -0.995187 -0.097999
vn 0.000000 -0.995187 -0.097999
vn 0.000000 -0.995187 -0.097999
vn 0.000000 -0.995187 -0.097999
vn 0.000000 -0.995187 0.097999
vn 0.000000 -0.995187 0.097999
vn 0.000000 -0.995187 0.097999
vn 0.000000 -0.995187 0.097999
vn 0.000000 -0.956933 0.290310
vn 0.000000 -0.956933 0.290310
vn 0.000000 -0.956933 0.290310
vn 0.000000 -0.956933 0.290310
vn 0.000000 -0.881915 0.471408
vn 0.000000 -0.881915 0.471408
vn 0.000000 -0.881915 0.471408
vn 0.000000 -0.881915 0.471408
vn 0.000000 -0.773003 0.634402
vn 0.000000 -0.773003 0.634402
vn 0.000000 -0.773003 0.634402
vn 0.000000 -0.773003 0.634402
vn 0.000000 -0.634402 0.773003
vn 0.000000 -0.634402 0.773003
vn 0.000000 -0.634402 0.773003
vn 0.000000 -0.634402 0.773003
vn 0.000000 -0.471408 0.881915
vn 0.000000 -0.471408 0.881915
vn 0.000000 -0.471408 0.881915
vn 0.000000 -0.471408 0.881915
vn 0.000000 -0.290310 0.956933
vn 0.000000 -0.290310 0.956933
vn 0.000000 -0.290310 0.956933
vn 0.000000 -0.290310 0.956933
vn 0.000000 -0.097999 0.995187
vn 0.000000 -0.097999 0.995187
vn 0.000000 -0.097999 0.995187
vn 0.000000 -0.097999 0.995187
vn 0.000000 0.097999 0.995187
vn 0.000000 0.097999 0.995187
vn 0.000000 0.097999 0.995187
vn 0.000000 0.097999 0.995187
vn 0.000000 0.290310 0.956933
vn 0.000000 0.290310 0.956933
vn 0.000000 0.290310 0.956933
vn 0.000000 0.290310 0.956933
vn 0.000000 0.471408 0.881915
vn 0.000000 0.471408 0.881915
vn 0.000000 0.471408 0.881915
vn 0.000000 0.471408 0.881915
vn 0.000000 0.634402 0.773003
vn 0.000000 0.634402 0.773003
vn 0.000000 0.634402 0.773003
vn 0.000000 0.634402 0.773003
vn 0.000000 0.773003 0.634402
vn 0.000000 0.773003 0.634402
vn 0.000000 0.773003 0.634402
vn 0.000000 0.773003 0.634402
vn 0.000000 0.881915 0.471408
vn 0.000000 0.881915 0.471408
vn 0.000000 0.881915 0.471408
vn 0.000000 0.881915 0.471408
vn 0.000000 0.956933 0.290310
vn 0.000000 0.956933 0.290310
vn 0.000000 0.956933 0.290310
vn 0.000000 0.956933 0.290310
vn 0.000000 0.995187 0.097999
vn 0.000000 0.995187 0.097999
vn 0.000000 0.995187 0.097999
vn 0.000000 0.995187 0.097999
vn 0.000000 0.995187 -0.097999
vn 0.000000 0.995187 -0.097999
vn 0.000000 0.995187 -0.097999
vn 0.000000 0.995187 -0.097999
vn 0.000000 0.956933 -0.290310
vn 0.000000 0.956933 -0.290310
vn 0.000000 0.956933 -0.290310
vn 0.000000 0.956933 -0.290310
vn 0.000000 0.881915 -0.471408
vn 0.000000 0.881915 -0.471408
vn 0.000000 0.881915 -0.471408
vn 0.000000 0.881915 -0.471408
vn 0.000000 0.773003 -0.634402
vn 0.000000 0.773003 -0.634402
vn 0.000000 0.773003 -0.634402
vn 0.000000 0.773003 -0.634402
vn 0.000000 0.634402 -0.773003
vn 0.000000 0.634402 -0.773003
vn 0.000000 0.634402 -0.773003
vn 0.000000 0.634402 -0.773003
vn 0.000000 0.471408 -0.881915
vn 0.000000 0.471408 -0.881915
vn 0.000000 0.471408 -0.881915
vn 0.000000 0.471408 -0.881915
vn 1.000000 0.000000 0.000000
vn 1.000000 0.000000 0.000000
vn 1.000000 0.000000 0.000000
vn 1.000000 0.000000 0.000000
vn 1.000000 0.000000 0.000000
vn 1.000000 0.000000 0.000000
vn 1.000000 0.000000 0.000000
vn 1.000000 0.000000 0.000000
vn 1.000000 0.000000 0.000000
vn 1.000000 0.000000 0.000000
vn 1.000000 0.000000 0.000000
vn 1.000000 0.000000 0.000000
vn 1.000000 0.000000 0.000000
vn 1.000000 0.000000 0.000000
vn 1.000000 0.000000 0.000000
vn 1.000000 0.000000 0.000000
vn 1.000000 0.000000 0.000000
vn 1.000000 0.000000 0.000000
vn 1.000000 0.000000 0.000000
vn 1.000000 0.000000 0.000000
vn 1.000000 0.000000 0.000000
vn 1.000000 0.000000 0.000000
vn 1.000000 0.000000 0.000000
vn 1.000000 0.000000 0.000000
vn 1.000000 0.000000 0.000000
vn 1.000000 0.000000 0.000000
vn 1.000000 0.000000 0.000000
vn 1.000000 0.000000 0.000000
vn 1.000000 0.000000 0.000000
vn 1.000000 0.000000 0.000000
vn 1.000000 0.000000 0.000000
vn 1.000000 0.000000 0.000000
vn -0.000000 0.290310 -0.956933
vn -0.000000 0.290310 -0.956933
vn -0.000000 0.290310 -0.956933
vn -0.000000 0.290310 -0.956933
vn 0.000000 0.097999 -0.995187
vn 0.000000 0.097999 -0.995187
vn 0.000000 0.097999 -0.995187
vn 0.000000 0.097999 -0.995187
vn -1.000000 0.000000 0.000000
vn -1.000000 0.000000 0.000000
vn -1.000000 0.000000 0.000000
vn -1.000000 0.000000 0.000000
vn -1.000000 0.000000 0.000000
vn -1.000000 0.000000 0.000000
vn -1.000000 0.000000 0.000000
vn -1.000000 0.000000 0.000000
vn -1.000000 0.000000 0.000000
vn -1.000000 0.000000 0.000000
vn -1.000000 0.000000 0.000000
vn -1.000000 0.000000 0.000000
vn -1.000000 0.000000 0.000000
vn -1.000000 0.000000 0.000000
vn -1.000000 0.000000 0.000000
vn -1.000000 0.000000 0.000000
vn -1.000000 0.000000 0.000000
vn -1.000000 0.000000 0.000000
vn -1.000000 0.000000 0.000000
vn -1.000000 0.000000 0.000000
vn -1.000000 0.000000 0.000000
vn -1.000000 0.000000 0.000000
vn -1.000000 0.000000 0.000000
vn -1.000000 0.000000 0.000000
vn -1.000000 0.000000 0.000000
vn -1.000000 0.000000 0.000000
vn -1.000000 0.000000 0.000000
vn -1.000000 0.000000 0.000000
vn -1.000000 0.000000 0.000000
vn -1.000000 0.000000 0.000000
vn -1.000000 0.000000 0.000000
vn -1.000000 0.000000 0.000000
s off
g EnemyNormal:Mesh
usemtl EnemyNormal:None
f 1/1/1 2/2/2 4/3/3 3/4/4
f 3/4/5 4/3/6 8/5/7 7/6/8
f 7/6/9 8/5/10 6/7/11 5/8/12
f 5/8/13 6/7/14 2/9/15 1/10/16
f 3/11/17 7/6/18 5/8/19 1/12/20
f 8/5/21 4/13/22 2/14/23 6/7/24
f 9/15/25 10/16/26 12/17/27 11/18/28
f 11/18/29 12/17/30 14/19/31 13/20/32
f 13/20/33 14/19/34 16/21/35 15/22/36
f 15/22/37 16/21/38 18/23/39 17/24/40
f 17/24/41 18/23/42 20/25/43 19/26/44
f 19/26/45 20/25/46 22/27/47 21/28/48
f 21/28/49 22/27/50 24/29/51 23/30/52
f 23/30/53 24/29/54 26/31/55 25/32/56
f 25/32/57 26/31/58 28/33/59 27/34/60
f 27/34/61 28/33/62 30/35/63 29/36/64
f 29/36/65 30/35/66 32/37/67 31/38/68
f 31/38/69 32/37/70 34/39/71 33/40/72
f 33/40/73 34/39/74 36/41/75 35/42/76
f 35/42/77 36/41/78 38/43/79 37/44/80
f 37/44/81 38/43/82 40/45/83 39/46/84
f 39/46/85 40/45/86 42/47/87 41/48/88
f 41/48/89 42/47/90 44/49/91 43/50/92
f 43/50/93 44/49/94 46/51/95 45/52/96
f 45/52/97 46/51/98 48/53/99 47/54/100
f 47/54/101 48/53/102 50/55/103 49/56/104
f 49/56/105 50/55/106 52/57/107 51/58/108
f 51/58/109 52/57/110 54/59/111 53/60/112
f 53/60/113 54/59/114 56/61/115 55/62/116
f 55/62/117 56/61/118 58/63/119 57/64/120
f 57/64/121 58/63/122 60/65/123 59/66/124
f 59/66/125 60/65/126 62/67/127 61/68/128
f 61/68/129 62/67/130 64/69/131 63/70/132
f 63/70/133 64/69/134 66/71/135 65/72/136
f 65/72/137 66/71/138 68/73/139 67/74/140
f 67/74/141 68/73/142 70/75/143 69/76/144
f 12/77/145 10/78/146 72/79/147 70/80/148 68/81/149 66/82/150 64/83/151 62/84/152 60/85/153 58/86/154 56/87/155 54/88/156 52/89/157 50/90/158 48/91/159 46/92/160 44/93/161 42/94/162 40/95/163 38/96/164 36/97/165 34/98/166 32/99/167 30/100/168 28/101/169 26/102/170 24/103/171 22/104/172 20/105/173 18/106/174 16/107/175 14/108/176
f 69/76/177 70/75/178 72/109/179 71/110/180
f 71/110/181 72/109/182 10/111/183 9/112/184
f 9/113/185 11/114/186 13/115/187 15/116/188 17/117/189 19/118/190 21/119/191 23/120/192 25/121/193 27/122/194 29/123/195 31/124/196 33/125/197 35/126/198 37/127/199 39/128/200 41/129/201 43/130/202 45/131/203 47/132/204 49/133/205 51/134/206 53/135/207 55/136/208 57/137/209 59/138/210 61/139/211 63/140/212 65/141/213 67/142/214 69/143/215 71/144/216
